<svg width="17" height="17" viewBox="0 0 17 17" fill="none" xmlns="http://www.w3.org/2000/svg">
<path d="M6.94264 13.7538C8.44132 13.7538 9.84068 13.2709 10.9782 12.4661L15.2576 16.7049C15.4562 16.9016 15.718 17 15.9888 17C16.5757 17 17 16.5529 17 15.9805C17 15.7123 16.9097 15.4619 16.7111 15.2651L12.4588 11.0442C13.3526 9.88164 13.8853 8.44187 13.8853 6.87691C13.8853 3.09416 10.7616 0 6.94264 0C3.11471 0 0 3.09416 0 6.87691C0 10.6597 3.11471 13.7538 6.94264 13.7538ZM6.94264 12.2693C3.95433 12.2693 1.49867 9.82799 1.49867 6.87691C1.49867 3.92583 3.95433 1.48448 6.94264 1.48448C9.92193 1.48448 12.3866 3.92583 12.3866 6.87691C12.3866 9.82799 9.92193 12.2693 6.94264 12.2693Z" fill="#757575"/>
</svg>
